<svg width="40" height="41" viewBox="0 0 40 41" fill="none" xmlns="http://www.w3.org/2000/svg">
<path d="M2.61862 40.8047V18.7689H0V8.78434H11.4649C11.0301 8.42877 10.7243 8.00522 10.5473 7.51369C10.3707 7.02183 10.2824 6.48914 10.2824 5.91564C10.247 4.521 10.7582 3.32052 11.816 2.31419C12.8738 1.30786 14.1534 0.804688 15.6548 0.804688C16.4658 0.804688 17.2394 0.999344 17.9755 1.38865C18.7113 1.77796 19.322 2.25937 19.8074 2.83287C20.2933 2.25937 20.9129 1.77796 21.6665 1.38865C22.42 0.999344 23.2202 0.804688 24.067 0.804688C25.5209 0.804688 26.7709 1.30161 27.817 2.29547C28.8631 3.28898 29.3862 4.4957 29.3862 5.91564C29.3862 6.49184 29.2989 7.02537 29.1245 7.51622C28.95 8.00708 28.6608 8.42978 28.2569 8.78434H40V18.7689H37.3814V40.8047H2.61862ZM24.0245 2.969C23.15 2.969 22.4202 3.25558 21.8351 3.82875C21.25 4.40192 20.9574 5.108 20.9574 5.94701C20.9574 6.78601 21.2475 7.47524 21.8277 8.01467C22.4082 8.55376 23.1271 8.82331 23.9846 8.82331C24.8537 8.82331 25.5922 8.54988 26.2 8.00303C26.8074 7.45617 27.1112 6.77876 27.1112 5.97079C27.1112 5.12707 26.8154 4.41575 26.2239 3.83685C25.6324 3.25828 24.8993 2.969 24.0245 2.969ZM12.5574 5.92019C12.5574 6.74233 12.8406 7.43172 13.4069 7.98835C13.9732 8.54499 14.6975 8.82331 15.5798 8.82331C16.4617 8.82331 17.2041 8.54735 17.8069 7.99544C18.4098 7.44319 18.7112 6.7543 18.7112 5.92879C18.7112 5.09215 18.4122 4.38961 17.8144 3.82116C17.2161 3.25305 16.4883 2.969 15.6309 2.969C14.7617 2.969 14.0321 3.25525 13.442 3.82774C12.8523 4.40023 12.5574 5.09772 12.5574 5.92019ZM2.32819 10.9993V16.554H18.8628V10.9993H2.32819ZM18.8628 38.5898V18.7689H4.79149V38.5898H18.8628ZM21.1904 38.5898H35.2085V18.7689H21.1904V38.5898ZM37.6718 16.554V10.9993H21.1904V16.554H37.6718Z" fill="#983016"/>
</svg>
