<svg width="40" height="37" viewBox="0 0 40 37" fill="none" xmlns="http://www.w3.org/2000/svg">
<path d="M19.1899 36.8047V34.4599H34.2883C34.6429 34.4599 34.9496 34.35 35.2085 34.1304C35.4677 33.9104 35.5973 33.6218 35.5973 33.2647V17.8399C35.5973 13.7195 34.0548 10.2568 30.9697 7.45183C27.8849 4.64683 24.2266 3.24433 19.9947 3.24433C15.7631 3.24433 12.1154 4.6454 9.0516 7.44754C5.98777 10.2493 4.45585 13.7163 4.45585 17.8484V30.3884H3.56383C2.59113 30.3884 1.75408 30.0558 1.05266 29.3904C0.350887 28.7247 0 27.9022 0 26.9229V22.8842C0 22.2442 0.215426 21.6584 0.646277 21.127C1.07748 20.5952 1.58901 20.1563 2.18085 19.8102L2.21755 17.3379C2.27145 14.9936 2.79078 12.8125 3.77553 10.7947C4.76028 8.77647 6.06223 7.0279 7.68138 5.54897C9.30089 4.07004 11.1704 2.90969 13.2899 2.0679C15.4094 1.22576 17.6461 0.804688 20 0.804688C22.3539 0.804688 24.5972 1.22665 26.7298 2.07058C28.8624 2.91487 30.7337 4.07558 32.3436 5.55272C33.9535 7.03022 35.253 8.77576 36.242 10.7893C37.2307 12.8033 37.7619 14.9818 37.8356 17.325L37.8723 19.7443C38.4369 20.0983 38.9326 20.4984 39.3596 20.9449C39.7865 21.3917 40 21.9447 40 22.604V27.2443C40 27.9579 39.7865 28.5463 39.3596 29.0095C38.9326 29.4727 38.4369 29.8554 37.8723 30.1575V33.2647C37.8723 34.2761 37.5183 35.119 36.8101 35.7933C36.102 36.4675 35.2613 36.8047 34.2883 36.8047H19.1899ZM14.4293 22.7111C13.9824 22.7111 13.5867 22.5547 13.242 22.2418C12.8973 21.9286 12.725 21.5418 12.725 21.0815C12.725 20.6215 12.9005 20.2245 13.2516 19.8906C13.6027 19.5567 14.0016 19.3897 14.4484 19.3897C14.8949 19.3897 15.2894 19.56 15.6319 19.9008C15.9745 20.2411 16.1457 20.6415 16.1457 21.1018C16.1457 21.5622 15.975 21.9456 15.6335 22.252C15.2924 22.5581 14.891 22.7111 14.4293 22.7111ZM25.591 22.7111C25.1232 22.7111 24.7168 22.5547 24.3718 22.2418C24.0268 21.9286 23.8543 21.5418 23.8543 21.0815C23.8543 20.6215 24.0335 20.2245 24.392 19.8906C24.7502 19.5567 25.1578 19.3897 25.6149 19.3897C26.072 19.3897 26.4718 19.56 26.8144 19.9008C27.1569 20.2411 27.3282 20.6415 27.3282 21.1018C27.3282 21.5622 27.1555 21.9456 26.8101 22.252C26.4651 22.5581 26.0587 22.7111 25.591 22.7111ZM8.65372 19.1261C8.31826 15.81 9.29202 12.9502 11.575 10.5467C13.8576 8.14272 16.7067 6.94076 20.1223 6.94076C22.8858 6.94076 25.3089 7.83558 27.3915 9.62522C29.4741 11.4152 30.75 13.6934 31.2191 16.4599C28.516 16.4242 25.9929 15.7697 23.65 14.4965C21.3067 13.2229 19.4397 11.4213 18.0489 9.09165C17.3965 11.4927 16.2328 13.5525 14.558 15.2711C12.8832 16.9893 10.9151 18.2743 8.65372 19.1261Z" fill="#983016"/>
</svg>
