<svg width="42" height="43" viewBox="0 0 42 43" fill="none" xmlns="http://www.w3.org/2000/svg">
<path d="M7.37234 34.3628C9.52633 32.8876 11.6954 31.7412 13.8795 30.9235C16.0637 30.1058 18.4381 29.697 21.0028 29.697C23.5671 29.697 25.9333 30.1058 28.1015 30.9235C30.2696 31.7412 32.4679 32.8876 34.6964 34.3628C36.2687 32.5354 37.4718 30.5908 38.3055 28.5292C39.1387 26.4671 39.5554 24.2256 39.5554 21.8047C39.5554 16.6262 37.7574 12.2391 34.1613 8.64338C30.5656 5.04732 26.1785 3.24929 21 3.24929C15.8215 3.24929 11.4344 5.04732 7.8387 8.64338C4.24263 12.2391 2.4446 16.6262 2.4446 21.8047C2.4446 24.2256 2.86348 26.4671 3.70125 28.5292C4.53902 30.5908 5.76271 32.5354 7.37234 34.3628ZM20.9883 23.3339C18.9367 23.3339 17.2107 22.6298 15.8103 21.2216C14.4096 19.8134 13.7092 18.0835 13.7092 16.0319C13.7092 13.9803 14.4133 12.2542 15.8215 10.8534C17.2301 9.45304 18.9601 8.75285 21.0117 8.75285C23.0633 8.75285 24.7893 9.45695 26.1897 10.8651C27.5904 12.2733 28.2908 14.0032 28.2908 16.0548C28.2908 18.1064 27.5867 19.8326 26.1785 21.2333C24.7699 22.6337 23.0399 23.3339 20.9883 23.3339ZM21.0263 42.8047C18.1015 42.8047 15.3732 42.2592 12.8413 41.1683C10.309 40.0773 8.08556 38.5663 6.17098 36.6354C4.25678 34.7048 2.74973 32.4815 1.64984 29.9656C0.549946 27.4494 0 24.722 0 21.7835C0 18.919 0.553856 16.219 1.66157 13.6834C2.76928 11.1474 4.27949 8.9124 6.19221 6.97846C8.10492 5.04453 10.32 3.53208 12.8374 2.44112C15.3548 1.35017 18.0827 0.804688 21.0212 0.804688C23.8856 0.804688 26.5857 1.35854 29.1213 2.46626C31.6573 3.57397 33.8878 5.08474 35.8128 6.99857C37.7378 8.91277 39.2503 11.1384 40.3502 13.6756C41.4501 16.2127 42 18.9137 42 21.7784C42 24.7032 41.4545 27.4315 40.3636 29.9634C39.2726 32.4957 37.7602 34.7152 35.8262 36.622C33.8923 38.5284 31.6582 40.0354 29.1241 41.1431C26.5903 42.2508 23.891 42.8047 21.0263 42.8047ZM21 40.3601C23.0307 40.3601 25.0693 40.0164 27.1157 39.3291C29.1621 38.6417 31.0389 37.5677 32.746 36.107C31.0545 34.8623 29.2058 33.8901 27.2 33.1905C25.1946 32.4912 23.1279 32.1416 21 32.1416C18.8721 32.1416 16.802 32.4838 14.7899 33.1681C12.7778 33.8529 10.9654 34.8381 9.35282 36.1238C10.9941 37.5584 12.8379 38.6231 14.8843 39.3179C16.9307 40.0127 18.9693 40.3601 21 40.3601ZM21.0061 20.8898C22.3741 20.8898 23.5228 20.4231 24.4522 19.4897C25.3815 18.5562 25.8462 17.4055 25.8462 16.0375C25.8462 14.6695 25.3795 13.5209 24.446 12.5915C23.5126 11.6621 22.3618 11.1975 20.9939 11.1975C19.6259 11.1975 18.4772 11.6642 17.5478 12.5976C16.6185 13.5307 16.1538 14.6813 16.1538 16.0492C16.1538 17.4172 16.6205 18.5659 17.554 19.4952C18.4874 20.425 19.6382 20.8898 21.0061 20.8898Z" fill="#983016"/>
</svg>
