<svg width="40" height="46" viewBox="0 0 40 46" fill="none" xmlns="http://www.w3.org/2000/svg">
<path d="M4.07024 45.8047C2.94167 45.8047 1.98115 45.4085 1.18869 44.616C0.39623 43.8235 0 42.863 0 41.7344V14.9577C0 13.8291 0.39623 12.8686 1.18869 12.0761C1.98115 11.2833 2.94167 10.8868 4.07024 10.8868H9.91786C9.91786 8.03286 10.8766 5.63901 12.794 3.70528C14.7119 1.77155 17.073 0.804688 19.8774 0.804688C22.7143 0.804688 25.1244 1.7787 27.1077 3.72671C29.0907 5.67513 30.0821 8.06183 30.0821 10.8868H35.9298C37.0583 10.8868 38.0189 11.2833 38.8113 12.0761C39.6038 12.8686 40 13.8291 40 14.9577V41.7344C40 42.863 39.6038 43.8235 38.8113 44.616C38.0189 45.4085 37.0583 45.8047 35.9298 45.8047H4.07024ZM4.07024 43.1993H35.9298C36.296 43.1993 36.6317 43.0467 36.9369 42.7416C37.2421 42.4364 37.3946 42.1007 37.3946 41.7344V14.9577C37.3946 14.5914 37.2421 14.2557 36.9369 13.9505C36.6317 13.645 36.296 13.4922 35.9298 13.4922H4.07024C3.70397 13.4922 3.36825 13.645 3.0631 13.9505C2.75794 14.2557 2.60536 14.5914 2.60536 14.9577V41.7344C2.60536 42.1007 2.75794 42.4364 3.0631 42.7416C3.36825 43.0467 3.70397 43.1993 4.07024 43.1993ZM19.9923 26.2898C22.8058 26.2898 25.2177 25.2868 27.228 23.2809C29.2379 21.2745 30.2429 18.8634 30.2429 16.0475H27.6375C27.6375 18.1781 26.8813 19.9837 25.369 21.4642C23.8567 22.9444 22.0629 23.6844 19.9875 23.6844C17.9121 23.6844 16.1302 22.9386 14.6417 21.4469C13.1528 19.9549 12.4083 18.1551 12.4083 16.0475H9.80298C9.80298 18.871 10.7976 21.2839 12.7869 23.2862C14.7766 25.2886 17.1784 26.2898 19.9923 26.2898ZM12.5226 10.8868H27.4774C27.4774 8.78683 26.7496 7.0158 25.294 5.57373C23.8389 4.13127 22.0718 3.41005 19.9929 3.41005C17.9139 3.41005 16.1492 4.13703 14.6988 5.591C13.248 7.04457 12.5226 8.80985 12.5226 10.8868Z" fill="#983016"/>
</svg>
