<svg width="14" height="25" viewBox="0 0 14 25" fill="none" xmlns="http://www.w3.org/2000/svg">
<path d="M3.46082 19.2475C3.46082 17.6677 3.43519 16.1126 3.46082 14.5328C3.46082 14.1132 3.33264 14.0391 2.94811 14.0638C2.23031 14.0885 1.53814 14.0638 0.820343 14.0638C0.256358 14.0638 0 13.8416 0 13.2739C0 12.2125 0 11.1511 0 10.1143C0 9.5466 0.230722 9.32444 0.820343 9.32444C1.56378 9.32444 2.30721 9.29976 3.07628 9.32444C3.38391 9.32444 3.48646 9.25039 3.48646 8.95418C3.48646 7.64592 3.40955 6.33766 3.53773 5.00472C3.79409 2.09198 5.92185 0.11725 8.9725 0.0185131C10.0236 -0.00617104 11.0746 -0.00617104 12.1513 0.0185131C12.6384 0.0185131 12.8948 0.265355 12.8948 0.734354C12.8948 1.64767 12.8948 2.56098 12.8948 3.4743C12.8948 3.99266 12.664 4.21482 12.1001 4.21482C11.613 4.21482 11.1259 4.21482 10.6645 4.21482C10.4594 4.21482 10.2286 4.21482 10.0236 4.23951C8.86996 4.33824 8.2547 4.90598 8.20343 6.01677C8.17779 7.02882 8.20343 8.04087 8.17779 9.0776C8.17779 9.34913 8.33161 9.32444 8.51106 9.32444C9.6903 9.32444 10.8952 9.32444 12.0744 9.32444C12.8435 9.32444 13.0742 9.57129 12.9973 10.2871C12.8691 11.3239 12.7409 12.3606 12.6128 13.3973C12.5615 13.8663 12.3308 14.0885 11.8181 14.0885C10.7414 14.0885 9.66466 14.1132 8.6136 14.0885C8.28033 14.0885 8.17779 14.1625 8.17779 14.4834C8.17779 17.6677 8.17779 20.852 8.17779 24.0362C8.17779 24.6533 8.04961 24.7767 7.40872 24.7767C6.30639 24.7767 5.20405 24.7767 4.12735 24.7767C3.61464 24.7767 3.46082 24.6286 3.46082 24.1349C3.46082 22.5058 3.46082 20.8766 3.46082 19.2475Z" fill="white"/>
</svg>
