<svg width="13" height="20" viewBox="0 0 13 20" fill="none" xmlns="http://www.w3.org/2000/svg">
<path d="M12.8568 5.662C12.8568 6.98008 12.8388 8.29067 12.8657 9.60875C12.8927 10.7246 12.7579 11.8255 12.4883 12.9114C12.1377 14.2894 11.4547 15.5476 10.3672 16.656C9.57626 17.4648 8.67749 18.1912 7.77873 18.9102C7.38327 19.2247 6.9249 19.4794 6.50248 19.7639C6.04411 20.071 5.66663 20.041 5.3251 19.6291C4.47127 18.6181 3.53655 17.6595 2.6288 16.6859C1.91878 15.922 1.92776 15.937 2.85349 15.3529C4.27354 14.4467 5.38801 13.3158 6.13399 11.9453C6.31374 11.6158 6.49349 11.2788 6.52046 10.9118C6.54742 10.6422 6.4845 10.4775 6.06209 10.4775C4.55216 10.4999 3.04223 10.485 1.53231 10.485C0.975073 10.485 0.786332 10.3352 0.786332 9.87086C0.786332 6.80034 0.795319 3.72233 0.777344 0.651803C0.777344 0.150035 0.98406 -0.00723584 1.55028 0.000253238C5.09142 0.0152314 8.62357 0.00774178 12.1647 0.00774178C12.677 0.00774178 12.8657 0.157524 12.8657 0.584401C12.8568 2.26945 12.8568 3.96947 12.8568 5.662Z" fill="white"/>
</svg>
