<svg width="187" height="55" viewBox="0 0 187 55" fill="none" xmlns="http://www.w3.org/2000/svg">
<path d="M45.2778 13.6362C53.0453 11.0149 58.1783 12.1287 62.0903 17.2137C65.7875 22.0174 65.9571 28.9812 62.5087 33.8974C58.6532 39.3874 53.8819 40.5349 45.2213 38.0262C45.1987 39.7812 45.0404 41.5137 45.504 43.2237C46.2163 45.8674 48.3758 47.4762 50.931 47.2624C54.0289 47.0037 55.5101 45.6424 55.7588 42.5374C55.8492 41.4012 56.3128 41.1987 57.2965 41.2212C59.2185 41.2662 61.1519 41.3224 63.0627 41.2099C64.6116 41.1199 64.7586 41.8062 64.589 43.0662C63.6732 49.7824 59.5351 53.5962 52.446 54.1249C48.2627 54.4399 44.3168 53.7537 40.9815 51.0199C37.7365 48.3649 36.4928 44.7762 36.4702 40.7374C36.425 31.6924 36.4815 22.6362 36.4363 13.5912C36.425 12.3874 36.7529 11.9487 38.0079 12.0274C39.7604 12.1287 41.5242 12.1174 43.2879 12.0387C44.4864 11.9712 45.4474 12.0612 45.2778 13.6362ZM58.0766 25.7862C58.0427 22.0399 55.1369 18.8899 51.7564 18.9237C48.3532 18.9574 45.5379 22.1299 45.5605 25.8987C45.5718 29.6337 48.5001 32.8287 51.8694 32.7837C55.2387 32.7387 58.1105 29.4987 58.0766 25.7862Z" fill="#FD6A46"/>
<path d="M31.371 34.2687C30.8509 40.9287 27.052 44.9899 20.4718 46.4637C16.865 47.2737 13.2696 47.1724 9.73077 46.1149C3.86279 44.3487 0.176938 39.6687 0.0638749 33.5149C-0.0604945 26.8662 0.0412631 20.2174 0.00734421 13.5687C0.00734421 12.6462 0.278695 12.3312 1.21712 12.3649C3.19572 12.4212 5.17433 12.4437 7.15293 12.3537C8.30617 12.2974 8.64536 12.6462 8.63406 13.8049C8.57753 19.8574 8.61144 25.9099 8.61144 31.9512C8.61144 32.4462 8.60014 32.9299 8.62275 33.4249C8.82626 37.6099 11.2345 40.0062 15.3613 40.1299C19.8951 40.2649 22.3938 38.2062 22.9026 33.9424C23.2531 30.9499 23.0383 27.9574 23.0609 24.9649C23.0948 19.8462 23.1061 14.7162 23.0496 9.59741C23.0383 8.48366 23.3096 8.04491 24.5081 8.11241C26.3736 8.20241 28.2505 8.20241 30.116 8.11241C31.2919 8.05616 31.6198 8.46116 31.5972 9.59741C31.5406 13.5237 31.5745 17.4499 31.5745 21.3762" fill="#FD6A46"/>
<path d="M81.5145 12.275C84.2959 12.275 86.8172 12.3313 89.3385 12.2525C90.4691 12.2188 90.537 12.9275 90.7179 13.6588C92.0294 19.0475 93.3409 24.4475 94.6638 29.8363C94.7316 30.1288 94.6411 30.5225 95.2291 30.68C95.817 29.015 96.4049 27.35 96.9816 25.685C98.3722 21.6125 99.7629 17.5513 101.142 13.4788C101.357 12.86 101.47 12.2525 102.397 12.2638C104.647 12.275 106.897 12.2075 109.147 12.1175C110.199 12.0838 110.346 12.4213 109.984 13.3663C105.608 24.92 101.323 36.5188 96.8685 48.05C94.7316 53.585 90.3108 55.745 84.4655 54.5188C83.7645 54.3725 83.414 54.1363 83.414 53.36C83.414 51.9425 83.3461 50.5363 83.2783 49.1188C83.2331 48.2525 83.6288 48.05 84.4542 48.005C89.949 47.7463 91.9729 44.7763 90.2882 39.545C87.5408 30.995 84.782 22.4563 82.0233 13.9063C81.8763 13.4563 81.7407 12.995 81.5145 12.275Z" fill="#FD6A46"/>
<path d="M182.627 20.8362C182.039 20.8474 181.36 20.8587 180.976 20.8474C179.721 20.8137 178.805 20.9037 178.455 19.2612C178.116 17.6187 176.51 17.1349 174.961 17.0449C173.446 16.9549 171.965 17.1574 170.97 18.4849C170.009 19.7562 170.416 21.3874 171.908 22.2199C173.57 23.1424 175.447 23.3449 177.256 23.7724C179.45 24.2899 181.62 24.8862 183.497 26.2024C187.455 28.9587 187.884 34.7299 184.379 38.0262C179.427 42.6949 168.957 42.3462 164.344 37.3624C163.078 36.0012 162.332 34.4037 162.049 32.5699C161.948 31.9062 162.095 31.5574 162.875 31.5799C164.74 31.6137 166.617 31.6024 168.483 31.5799C169.138 31.5687 169.387 31.8274 169.591 32.4687C170.574 35.5624 175.447 36.9237 178.059 34.8762C179.551 33.7062 179.506 31.7824 177.923 30.7587C176.714 29.9712 175.312 29.6449 173.91 29.3412C171.66 28.8462 169.421 28.2949 167.375 27.1924C161.812 24.1999 161.348 17.5287 166.447 13.7824C170.766 10.6099 178.964 10.6887 183.237 13.9624C185.046 15.3462 186.2 17.1237 186.584 19.3962C186.754 20.4087 186.403 20.8474 185.431 20.8474C184.492 20.8587 183.554 20.8362 182.627 20.8362Z" fill="#FD6A46"/>
<path d="M76.7772 43.0999C75.6579 43.2687 75.7144 42.5149 75.5561 41.9974C72.6956 32.2999 69.8464 22.5912 66.9859 12.8937C66.0814 9.8112 65.2787 6.7062 64.2385 3.6687C63.7636 2.2737 64.2046 1.8462 65.4596 1.5537C67.0085 1.1937 68.5462 0.788701 70.0386 0.226201C71.3728 -0.268799 71.8815 0.0124507 72.2886 1.42995C75.183 11.5212 78.1678 21.5787 81.1301 31.6474C81.9442 34.4149 82.7356 37.1824 83.5497 39.9499C83.6966 40.4449 84.115 40.9849 83.2218 41.2324C81.0057 41.8512 78.801 42.5037 76.7772 43.0999Z" fill="#FD6A46"/>
<path d="M123.529 21.8149C123.642 21.8149 123.744 21.8149 123.857 21.8149C126.649 21.8149 126.649 21.8149 127.305 24.4812C128.696 30.1737 134.292 33.9874 140.658 33.5824C146.526 33.2112 151.455 28.6774 152.066 22.9962C152.156 22.1299 152.371 21.7474 153.321 21.8037C154.802 21.8824 156.294 21.9049 157.764 21.7924C158.951 21.7024 159.144 22.2424 159.053 23.2212C158.409 29.9937 154.96 34.9774 149.002 38.1724C137.266 44.4724 122.839 37.7899 120.25 24.9424C119.639 21.8149 119.639 21.8149 123.529 21.8149Z" fill="#FD6A46"/>
<path d="M137.865 15.7624C137.865 19.7562 137.865 19.6999 133.885 19.7787C132.461 19.8124 132.065 19.4862 132.042 17.9899C132.031 16.1562 132.099 14.4012 132.065 12.6124C132.054 11.8474 132.336 11.5549 133.105 11.5662C133.263 11.5662 133.433 11.5662 133.603 11.5662C137.865 11.5099 137.865 11.5099 137.865 15.7624Z" fill="#FD6A46"/>
<path d="M146.447 16.6848C146.447 19.5873 146.447 19.5873 143.507 19.5873C140.669 19.5873 140.669 19.5873 140.669 16.7298C140.669 13.5798 140.669 13.5798 143.869 13.5798C146.447 13.5798 146.447 13.5798 146.447 16.6848Z" fill="#FD6A46"/>
</svg>
