<?xml version="1.0" encoding="UTF-8"?>
<svg id="Layer_1" data-name="Layer 1" xmlns="http://www.w3.org/2000/svg" viewBox="0 0 402.98 473.09">
  <defs>
    <style>
      .cls-1 {
        fill: #a4d396;
      }
    </style>
  </defs>
  <path class="cls-1" d="M227.91,49.23s29.51,166.11-121.3,247.18c-150.81,81.07-12.02,70.8,37.16,43.7,49.18-27.11,170.48-97.05,151.9-183.38-18.58-86.33-29.51-92.89-13.11-96.17,16.39-3.28-37.16-69.66-54.64-11.33Z"/>
  <path class="cls-1" d="M183.18,121.03s49.84,4.63,28.38-14.4c-21.46-19.03-38.45-21.67-42.23-13.44s13.85,27.84,13.85,27.84Z"/>
  <path class="cls-1" d="M70,374.21s30.97-9.29,38.71,0c7.74,9.29-11.87,27.87-24.26,20.65-12.39-7.23-24.79-18.17-14.45-20.65Z"/>
  <path class="cls-1" d="M213.92,89.39s-12.74,3.84-12.42-4.62c.32-8.46,12.23-21.2,14.02-13.86,1.79,7.34,2.47,17.71-1.6,18.48Z"/>
</svg>