<?xml version="1.0" encoding="UTF-8"?>
<svg id="Layer_1" data-name="Layer 1" xmlns="http://www.w3.org/2000/svg" viewBox="0 0 369.28 302.5">
  <defs>
    <style>
      .cls-1 {
        fill: #9e8b42;
      }
    </style>
  </defs>
  <path class="cls-1" d="M155.8,73.39S12.58,38.55,30.38,177.13c0,0,20.13,91.35,89.03,42.58,0,0,17.81-27.81,20.9,3.13,3.1,30.94,3.87,43.32,20.9,37.9,0,0,6.97-.08,0,9.64s87.48,17.46,82.84-16.61-27.1-53.42-12.39-55.74,34.84,30.97,55.74,20.9c20.9-10.06,118.45-127.03-46.45-149.45,0,0-54.97,16.29-85.16,3.9Z"/>
  <path class="cls-1" d="M129.48,229.06s-15.48,22.11-33.29,19.79-24,25.28,0,24.25,33.29-44.04,33.29-44.04Z"/>
  <path class="cls-1" d="M201.48,65.14s6.97-35.89,30.19-35.98c23.23-.09,34.84,4.84,27.87,15.92-6.97,11.09-44.9,.39-58.06,20.06Z"/>
  <path class="cls-1" d="M183.93,36.22s-9.25,22.84,8.13,16.05c17.39-6.8,12.87-24.27,19.04-27.5,6.18-3.23-19.19-12.17-27.18,11.45Z"/>
</svg>