<?xml version="1.0" encoding="UTF-8"?>
<svg id="Layer_1" data-name="Layer 1" xmlns="http://www.w3.org/2000/svg" viewBox="0 0 400.82 316.74">
  <defs>
    <style>
      .cls-1 {
        fill: #86d1d0;
      }
    </style>
  </defs>
  <path class="cls-1" d="M103.69,109.26S-.83,116.71,38.66,157.69s48,20.07,47.23,44.84,41.81,0,41.81,0c0,0,9.29,18.58-6.19,34.84-15.48,16.26,22.45,61.58,46.45,57.5,24-4.08,91.35,16.37,73.55-25.21-17.81-41.58-11.89-57.77,2.96-57.8,14.85-.03,21.04,23.97,42.72,17.77,21.68-6.19,45.68-26.32,40.26-41.03-5.42-14.71,12.39-21.54,21.68-26.25,9.29-4.72,6.19-50.39-30.97-40.33-37.16,10.06-41.03-34.06-24-41.03,17.03-6.97-37.16-59.61-61.16-48-24,11.61,9.29,42.34-17.03,54.07-26.32,11.73-40.26,2.44-40.26-9.17S38.66,36.13,103.69,109.26Z"/>
  <path class="cls-1" d="M319.69,83.58s-25.55,10.06-16.26,20.9c9.29,10.84,16.26-11.61,38.71,10.84,22.45,22.45,58.06,15.48,50.32-4.65-7.74-20.13-23.23-63.48-72.77-27.1Z"/>
  <path class="cls-1" d="M301.4,51.06s8.8,25.55,0,35.61c-8.8,10.06,33.78-16.26,22.16-35.61-11.61-19.35-22.16,0-22.16,0Z"/>
  <path class="cls-1" d="M85.88,250.81s8.52,27.1,27.1,30.97c18.58,3.87,24,20.13,0,17.81-24-2.32-45.68-38.71-40.26-48.77s13.16,0,13.16,0Z"/>
</svg>