<?xml version="1.0" encoding="utf-8"?>
<!-- Generator: Adobe Illustrator 27.0.0, SVG Export Plug-In . SVG Version: 6.00 Build 0)  -->
<svg version="1.1" id="Layer_1" xmlns="http://www.w3.org/2000/svg" xmlns:xlink="http://www.w3.org/1999/xlink" x="0px" y="0px"
	 viewBox="0 0 360 415" style="enable-background:new 0 0 360 415;" xml:space="preserve">
<style type="text/css">
	.st0{fill:#F9F28D;}
</style>
<path class="st0" d="M237.3,19c0,0-78.5,27.7-89.3,92.6c-10.8,65-95.3-6.7-116.6,40.8s-49,119.3-3.5,106.5s78.1-72.4,103.6-49.7
	S37,238.4,29.9,283.8c-7.1,45.4,21.3,170.4,80.9,80.9c59.6-89.4,32.7-115.7,58.9-115c26.3,0.7,8.9,105.8-21.8,114.3
	c-30.7,8.5-17.9,82.4,36,35.5c54-46.8,119.3-125.7,77.4-175.3c0,0-17-31.2,5.7-27S370,112,334.5,85.1S323.2-7.9,237.3,19L237.3,19z"
	/>
<path class="st0" d="M324.6,194.5c0,0-25.6,13.2-43.7,11.2c-18.1-2.1-12.4,12.5,12.4,25.3c24.8,12.8,76-5.1,61.8-25.3
	C340.9,185.5,324.6,194.5,324.6,194.5z"/>
<path class="st0" d="M319.4,264.7c0,0-17.9-9.4-24-20.6s-12.2-2.1-9.5,17.3c2.6,19.4,33.5,41.7,39.4,25.4
	C331.2,270.4,319.4,264.7,319.4,264.7z"/>
<path class="st0" d="M97.4,25.4c-15.8,21.8,22.4,57.5,34.1,39.4c11.7-18.1-1.1-45.8,21.3-45.8S128.3-17.2,97.4,25.4L97.4,25.4z"/>
</svg>
