<?xml version="1.0" encoding="UTF-8"?>
<svg id="Layer_1" data-name="Layer 1" xmlns="http://www.w3.org/2000/svg" viewBox="0 0 343.67 324.42">
  <defs>
    <style>
      .cls-1 {
        fill: #85c441;
      }
    </style>
  </defs>
  <path class="cls-1" d="M90.83,75.36s-10.64,11.09-8.8,31.13c1.84,20.04-18.64,8.71-16.36,41.93s34.4,165.5,121.77,141.94,142.59-55.96,115.48-97.73c-27.11-41.77-35.19-167.75-126.9-139.88s-47.52,33.29-54.43,19c-6.91-14.29-30.77,3.61-30.77,3.61Z"/>
  <path class="cls-1" d="M71.49,109.58s-34.72,20.49-56.66,2.82-4.79-29.49,18.06-22.73c22.84,6.76,27.69,22.85,36.66,14.22,8.97-8.63,1.95,5.69,1.95,5.69Z"/>
  <path class="cls-1" d="M58.4,123.72c-18.55,17.95-49,40.05-24.04,47.02,24.96,6.97,12.93-36.18,22.35-39.98s1.69-7.04,1.69-7.04Z"/>
  <path class="cls-1" d="M281.12,43.63s-28.93-12.88-27.87,6.19,25.61,47.55,34.1,30.74c8.48-16.8-6.23-36.93-6.23-36.93Z"/>
  <path class="cls-1" d="M242.99,47.57s-.06-15.68-7.34-12.08c-7.28,3.6-7.25,8.66-3.41,10.57,3.84,1.91,10.75,1.51,10.75,1.51Z"/>
</svg>