<?xml version="1.0" encoding="UTF-8"?>
<svg id="Layer_1" data-name="Layer 1" xmlns="http://www.w3.org/2000/svg" viewBox="0 0 389.91 306.66">
  <defs>
    <style>
      .cls-1 {
        fill: #faab2c;
      }
    </style>
  </defs>
  <path class="cls-1" d="M178.47,92.25s-1.44-42.73,20.84-45.5c22.28-2.77,34.89,17.12,34.89,17.12,0,0-36.13,4.1-26.55,24.75,0,0,1.36,6.85,11.41-4.28,10.06-11.13,6.1-17.92,26-12.59,19.91,5.33,39.45,7.74,59.67,7.23,20.22-.51,40.72,151.93,8.12,165.86,0,0-14.79-1.8-17.35,6.84-2.57,8.64-52.47,46.56-70.12,25.87-17.65-20.69-16.63,12.64-26.15,11.4s-103.51,12.51-106.56-99.97c0,0-4.4-27.02,15.14-45.57,0,0-14.67-63.71,59.7-46.94,0,0,10.16,10.05,10.95-4.22Z"/>
  <path class="cls-1" d="M92.25,130.49s-49.83-3.4-38.22,22.84,29.21-13.61,38.22-11.49c9.01,2.12,0-11.35,0-11.35Z"/>
  <path class="cls-1" d="M96.25,125.37s-8.93-24.77-49.96-20.13C5.26,109.89-5.58,80.47,12.22,74.28s54.25-44.13,84.03,51.1Z"/>
  <path class="cls-1" d="M287.45,34.7s-13.71,11.6,2,13.42,31.8,4.22,25.44-10.07c-6.36-14.29-20.6-14.85-27.44-3.35Z"/>
</svg>