<svg width="270" height="270" viewBox="0 0 270 270" fill="none" xmlns="http://www.w3.org/2000/svg">
<rect width="270" height="270" fill="#F06743"/>
<path d="M87.2774 121.636C95.0448 119.015 100.178 120.129 104.09 125.214C107.787 130.017 107.957 136.981 104.508 141.897C100.653 147.387 95.8815 148.535 87.2208 146.026C87.1982 147.781 87.0399 149.514 87.5035 151.224C88.2158 153.867 90.3753 155.476 92.9305 155.262C96.0284 155.004 97.5096 153.642 97.7583 150.537C97.8488 149.401 98.3123 149.199 99.296 149.221C101.218 149.266 103.151 149.322 105.062 149.21C106.611 149.12 106.758 149.806 106.589 151.066C105.673 157.782 101.535 161.596 94.4456 162.125C90.2622 162.44 86.3163 161.754 82.981 159.02C79.7361 156.365 78.4924 152.776 78.4697 148.737C78.4245 139.692 78.4811 130.636 78.4358 121.591C78.4245 120.387 78.7524 119.949 80.0074 120.027C81.7599 120.129 83.5237 120.117 85.2875 120.039C86.4859 119.971 87.447 120.061 87.2774 121.636ZM100.076 133.786C100.042 130.04 97.1365 126.89 93.7559 126.924C90.3527 126.957 87.5374 130.13 87.56 133.899C87.5713 137.634 90.4997 140.829 93.8689 140.784C97.2382 140.739 100.11 137.499 100.076 133.786Z" fill="white"/>
<path d="M73.371 142.268C72.8509 148.928 69.052 152.99 62.4718 154.463C58.865 155.273 55.2696 155.172 51.7308 154.115C45.8628 152.348 42.1769 147.668 42.0639 141.515C41.9395 134.866 42.0413 128.217 42.0073 121.568C42.0073 120.646 42.2787 120.331 43.2171 120.365C45.1957 120.421 47.1743 120.443 49.1529 120.353C50.3062 120.297 50.6454 120.646 50.6341 121.805C50.5775 127.857 50.6114 133.91 50.6114 139.951C50.6114 140.446 50.6001 140.93 50.6227 141.425C50.8263 145.61 53.2345 148.006 57.3613 148.13C61.8951 148.265 64.3938 146.206 64.9026 141.942C65.2531 138.95 65.0383 135.957 65.0609 132.965C65.0948 127.846 65.1061 122.716 65.0496 117.597C65.0383 116.483 65.3096 116.045 66.5081 116.112C68.3736 116.202 70.2505 116.202 72.116 116.112C73.2919 116.056 73.6198 116.461 73.5972 117.597C73.5406 121.523 73.5745 125.45 73.5745 129.376" fill="white"/>
<path d="M123.515 120.275C126.296 120.275 128.817 120.331 131.339 120.253C132.469 120.219 132.537 120.928 132.718 121.659C134.03 127.048 135.341 132.448 136.664 137.836C136.732 138.129 136.641 138.523 137.229 138.68C137.817 137.015 138.405 135.35 138.982 133.685C140.372 129.613 141.763 125.551 143.142 121.479C143.357 120.86 143.47 120.253 144.397 120.264C146.647 120.275 148.897 120.208 151.147 120.118C152.199 120.084 152.346 120.421 151.984 121.366C147.608 132.92 143.323 144.519 138.869 156.05C136.732 161.585 132.311 163.745 126.466 162.519C125.765 162.373 125.414 162.136 125.414 161.36C125.414 159.943 125.346 158.536 125.278 157.119C125.233 156.253 125.629 156.05 126.454 156.005C131.949 155.746 133.973 152.776 132.288 147.545C129.541 138.995 126.782 130.456 124.023 121.906C123.876 121.456 123.741 120.995 123.515 120.275Z" fill="white"/>
<path d="M224.627 128.836C224.039 128.847 223.36 128.859 222.976 128.847C221.721 128.814 220.805 128.904 220.454 127.261C220.115 125.619 218.51 125.135 216.961 125.045C215.446 124.955 213.965 125.157 212.97 126.485C212.009 127.756 212.416 129.387 213.908 130.22C215.57 131.142 217.447 131.345 219.256 131.772C221.449 132.29 223.62 132.886 225.497 134.202C229.454 136.959 229.884 142.73 226.379 146.026C221.427 150.695 210.957 150.346 206.344 145.362C205.078 144.001 204.332 142.404 204.049 140.57C203.947 139.906 204.094 139.557 204.874 139.58C206.74 139.614 208.617 139.602 210.482 139.58C211.138 139.569 211.387 139.827 211.59 140.469C212.574 143.562 217.447 144.924 220.059 142.876C221.551 141.706 221.506 139.782 219.923 138.759C218.713 137.971 217.311 137.645 215.909 137.341C213.659 136.846 211.421 136.295 209.374 135.192C203.812 132.2 203.348 125.529 208.447 121.782C212.766 118.61 220.963 118.689 225.237 121.962C227.046 123.346 228.199 125.124 228.584 127.396C228.753 128.409 228.403 128.847 227.43 128.847C226.492 128.859 225.554 128.836 224.627 128.836Z" fill="white"/>
<path d="M118.777 151.1C117.658 151.269 117.714 150.515 117.556 149.997C114.695 140.3 111.846 130.591 108.986 120.894C108.081 117.811 107.278 114.706 106.238 111.669C105.763 110.274 106.204 109.846 107.459 109.554C109.008 109.194 110.546 108.789 112.038 108.226C113.373 107.731 113.881 108.012 114.288 109.43C117.183 119.521 120.168 129.579 123.13 139.647C123.944 142.415 124.735 145.182 125.549 147.95C125.696 148.445 126.115 148.985 125.222 149.232C123.005 149.851 120.801 150.504 118.777 151.1Z" fill="white"/>
<path d="M165.528 129.815C165.641 129.815 165.743 129.815 165.856 129.815C168.649 129.815 168.649 129.815 169.305 132.482C170.695 138.174 176.292 141.988 182.657 141.583C188.525 141.212 193.455 136.678 194.065 130.997C194.156 130.13 194.371 129.748 195.32 129.804C196.802 129.883 198.294 129.905 199.764 129.793C200.951 129.703 201.143 130.243 201.053 131.222C200.408 137.994 196.96 142.978 191.001 146.173C179.265 152.473 164.839 145.79 162.249 132.943C161.639 129.815 161.639 129.815 165.528 129.815Z" fill="white"/>
<path d="M179.865 123.763C179.865 127.757 179.865 127.7 175.885 127.779C174.461 127.813 174.065 127.487 174.042 125.99C174.031 124.157 174.099 122.402 174.065 120.613C174.054 119.848 174.336 119.555 175.105 119.567C175.263 119.567 175.433 119.567 175.603 119.567C179.865 119.51 179.865 119.51 179.865 123.763Z" fill="white"/>
<path d="M188.446 124.685C188.446 127.588 188.446 127.588 185.507 127.588C182.669 127.588 182.669 127.588 182.669 124.73C182.669 121.58 182.669 121.58 185.869 121.58C188.446 121.58 188.446 121.58 188.446 124.685Z" fill="white"/>
</svg>
