<svg width="193" height="193" viewBox="0 0 193 193" fill="none" xmlns="http://www.w3.org/2000/svg">
<rect width="193" height="193" rx="20" fill="#F06743"/>
<path d="M50.4711 84.0748C50.8021 84.0748 51.1001 84.0748 51.4312 84.0748C59.6081 84.0748 59.6081 84.0748 61.5282 91.8816C65.6001 108.549 81.9871 119.716 100.625 118.53C117.807 117.443 132.241 104.168 134.028 87.5335C134.293 84.9971 134.922 83.8772 137.703 84.0419C142.04 84.2724 146.41 84.3383 150.713 84.0089C154.189 83.7454 154.752 85.3265 154.487 88.1923C152.6 108.022 142.503 122.615 125.057 131.97C90.6937 150.416 48.4517 130.85 40.8706 93.2322C39.083 84.0748 39.0829 84.0748 50.4711 84.0748Z" fill="white"/>
<path d="M92.4474 66.3189C92.4474 78.0127 92.4474 77.848 80.7944 78.0786C76.6232 78.1774 75.4645 77.2221 75.3983 72.8411C75.3652 67.4718 75.5638 62.3332 75.4645 57.0957C75.4314 54.8557 76.259 53.9993 78.5102 54.0322C78.9737 54.0322 79.4702 54.0322 79.9668 54.0322C92.4474 53.8675 92.4474 53.8675 92.4474 66.3189Z" fill="white"/>
<path d="M117.574 69.0544C117.574 77.553 117.574 77.553 108.967 77.553C100.657 77.553 100.657 77.553 100.657 69.1861C100.657 59.9629 100.657 59.9629 110.026 59.9629C117.574 59.9629 117.574 59.9629 117.574 69.0544Z" fill="white"/>
</svg>
