<svg width="562" height="502" viewBox="0 0 562 502" fill="none" xmlns="http://www.w3.org/2000/svg">
<path d="M135.086 208.86C135.086 208.86 -9.24195 260.786 62.647 302.879C134.536 344.973 138.24 312.135 146.973 347.344C155.705 382.553 205.888 330.772 205.888 330.772C205.888 330.772 226.343 353.271 210.975 382.319C195.606 411.367 267.017 460.194 299.219 444.932C331.421 429.671 434.43 431.792 392.867 380.256C351.29 328.724 353.215 303.564 374.128 297.636C395.042 291.708 413.277 323.073 441.369 305.743C469.465 288.428 495.305 250.549 481.837 231.97C468.369 213.39 490.759 196.706 501.982 186.387C513.202 176.054 490.732 112.928 442.357 141.833C393.981 170.737 371.041 110.101 392.275 93.5292C413.51 76.9576 316.285 24.2605 287.068 50.133C257.851 76.0056 316.941 106.113 284.502 133.074C252.064 160.035 228.738 152.47 224.137 136.11C219.535 119.75 14.4651 131.587 135.086 208.86Z" fill="#86D1D0"/>
<path d="M136.392 72.8397C136.392 72.8397 148.184 95.2047 160.029 86.647C171.874 78.0893 146.73 72.5669 171.185 51.9965C195.64 31.4262 187.051 0.0481924 164.833 7.50397C142.615 14.9598 94.7404 29.9709 136.381 72.84L136.392 72.8397Z" fill="#86D1D0"/>
<path d="M69.0668 113.424C69.0668 113.424 112.323 89.5646 133.199 102.268C154.074 114.971 93.3281 46.5006 62.1215 73.4984C30.915 100.496 69.0668 113.424 69.0668 113.424Z" fill="#86D1D0"/>
<path d="M388.287 314.808C388.287 314.808 408.512 335.721 423.747 331.547C438.983 327.373 451.337 339.794 433.057 347.6C414.777 355.407 380.338 331.547 378.934 320.244C377.53 308.941 388.293 314.817 388.293 314.817L388.287 314.808Z" fill="#86D1D0"/>
</svg>
