<svg width="531" height="510" viewBox="0 0 531 510" fill="none" xmlns="http://www.w3.org/2000/svg">
<path d="M268.056 30.3677C268.056 30.3677 348.91 77.6417 345.167 150.12C341.425 222.599 453.196 163.979 465.362 220.017C477.529 276.055 490.947 359.556 443.351 335.697C395.754 311.838 373.852 240.251 339.783 259.101C305.714 277.951 438.086 311.438 434.927 362.028C431.769 412.619 369.604 541.134 324.848 431.405C280.106 321.679 316.622 299.315 287.122 294.262C257.623 289.209 251.421 406.416 283.61 422.424C315.803 438.416 283.531 515.246 234.74 452.74C185.935 390.231 132.256 290.732 191.128 246.4C191.128 246.4 217.77 216.476 191.366 216.039C164.962 215.601 97.2399 101.296 143.446 80.0648C189.652 58.8339 178.702 -17.7725 268.068 30.3856L268.056 30.3677Z" fill="#F9F28D"/>
<path d="M45.9505 200.301C45.9505 200.301 70.8176 219.92 91.1748 221.676C111.532 223.433 101.809 237.63 71.4875 245.768C41.1656 253.907 -10.6481 223.799 9.77774 205.509C30.1885 187.216 45.9505 200.301 45.9505 200.301Z" fill="#F9F28D"/>
<path d="M68.8767 272.71C68.8767 272.71 90.7771 266.663 100.161 256.058C109.545 245.453 114.041 256.467 106.484 276.505C98.9224 296.558 59.7241 313.406 57.1723 294.836C54.6021 276.277 68.8767 272.71 68.8767 272.71Z" fill="#F9F28D"/>
<path d="M434.79 127.539C462.361 137.279 448.554 194.092 426.999 185.107C405.443 176.123 400.65 142.806 380.113 157.072C359.576 171.337 381.021 108.527 434.811 127.543L434.79 127.539Z" fill="#F9F28D"/>
</svg>
