<svg width="412" height="473" viewBox="0 0 412 473" fill="none" xmlns="http://www.w3.org/2000/svg">
<path d="M269.211 33.7921C269.211 33.7921 310.988 268.674 97.4878 383.308C-116.013 497.943 80.4712 483.421 150.095 445.101C219.719 406.781 391.442 307.871 365.138 185.799C338.835 63.7268 323.361 54.4509 346.579 49.8129C369.782 45.1749 293.972 -48.6874 269.225 33.7921H269.211Z" fill="#A4D396"/>
<path d="M202.602 134.41C202.602 134.41 273.16 140.957 242.779 114.049C212.398 87.14 188.346 83.407 182.994 95.0443C177.643 106.682 202.602 134.41 202.602 134.41Z" fill="#A4D396"/>
<path d="M349.51 324.942C349.51 324.942 369.699 283.866 386.782 284.767C403.864 285.669 404.243 323.889 384.829 329.805C365.405 335.71 342.125 338.058 349.51 324.942Z" fill="#A4D396"/>
<path d="M246.169 72.671C246.169 72.671 228.133 78.1008 228.587 66.1382C229.04 54.1757 245.9 36.1611 248.435 46.54C250.969 56.9189 251.931 71.5822 246.169 72.671Z" fill="#A4D396"/>
</svg>
