<svg width="453" height="531" viewBox="0 0 453 531" fill="none" xmlns="http://www.w3.org/2000/svg">
<path d="M33.8411 179.992C33.8411 179.992 20.8214 201.692 31.0993 233.211C41.3772 264.73 21.1835 248.562 36.9853 301.092C52.787 353.622 149.246 506.92 292.41 483.916C423.997 414.167 423.135 371.193 417.04 290.923C396.386 200.159 330.914 57.0856 182.791 100.367C114.52 115.902 115.325 173.371 99.0131 152.94C82.7014 132.508 33.8251 179.996 33.8251 179.996L33.8411 179.992Z" fill="#85C441"/>
<path d="M122.374 91.6397C122.374 91.6397 142.947 43.4814 179.509 45.1301C216.07 46.7788 207.215 72.3467 178.097 82.8287C148.989 93.3031 131.531 80.1727 128.783 96.1102C126.036 112.048 122.364 91.6474 122.364 91.6474L122.374 91.6397Z" fill="#85C441"/>
<path d="M80.5762 145.956C80.5762 145.956 99.0555 124.613 82.4974 120.58C65.9392 116.548 35.2716 130.117 47.4304 141.711C59.5832 153.293 80.5762 145.956 80.5762 145.956Z" fill="#85C441"/>
<path d="M99.7092 118.587C99.7092 118.587 51.4354 102.598 81.1377 48.1363C110.84 -6.32554 126.391 -1.08103 122.488 31.4138C118.584 63.9086 99.7092 118.587 99.7092 118.587Z" fill="#85C441"/>
</svg>
