<svg width="507" height="426" viewBox="0 0 507 426" fill="none" xmlns="http://www.w3.org/2000/svg">
<path d="M210.186 87.4484C210.186 87.4484 -26.9345 29.9897 2.53588 258.538C2.53588 258.538 35.8639 409.194 149.938 328.762C149.938 328.762 179.425 282.897 184.541 333.924C189.673 384.951 190.948 405.368 219.143 396.429C219.143 396.429 230.683 396.297 219.143 412.328C207.604 428.358 363.979 441.123 356.297 384.934C348.615 328.745 311.429 296.833 335.783 293.007C360.138 289.181 393.466 344.083 428.069 327.475C462.672 310.884 624.18 117.975 351.164 81C351.164 81 260.154 107.866 210.17 87.4319L210.186 87.4484Z" fill="#9E8B42"/>
<path d="M169 357C169 357 147.541 387.605 122.852 384.394C98.1634 381.182 89.5826 419.387 122.852 417.961C156.122 416.535 169 357 169 357Z" fill="#9E8B42"/>
<path d="M314 56C314 56 324.907 0.141955 361.243 0.00188219C397.594 -0.138191 415.762 7.53471 404.855 24.7793C393.948 42.0394 334.593 25.3862 314 56Z" fill="#9E8B42"/>
<path d="M250.859 24.8267C250.859 24.8267 236.344 60.6786 263.616 50.0204C290.904 39.3464 283.812 11.9238 293.493 6.85371C303.191 1.78359 263.381 -12.2495 250.843 24.8267H250.859Z" fill="#9E8B42"/>
</svg>
