<svg width="505" height="436" viewBox="0 0 505 436" fill="none" xmlns="http://www.w3.org/2000/svg">
<path d="M201.895 83.905C201.895 83.905 199.308 7.43107 239.333 2.47359C279.357 -2.48388 302.01 33.1133 302.01 33.1133C302.01 33.1133 237.105 40.4511 254.315 77.4084C254.315 77.4084 256.758 89.6679 274.812 69.7485C292.884 49.8291 285.77 37.677 321.519 47.2161C357.286 56.7552 392.388 61.0684 428.712 60.1557C465.035 59.2429 501.862 332.065 443.299 356.996C443.299 356.996 416.73 353.774 412.131 369.237C407.514 384.7 317.872 452.566 286.166 415.537C254.459 378.508 256.291 438.159 239.189 435.939C222.087 433.72 53.2412 458.328 47.7621 257.023C47.7621 257.023 39.8579 208.665 74.96 175.466C74.96 175.466 48.6064 61.4443 182.206 91.4576C182.206 91.4576 200.458 109.444 201.877 83.905H201.895Z" fill="#FAAB2C"/>
<path d="M59.9009 92.1848C59.9009 92.1848 -3.55031 87.8231 11.2333 121.485C26.017 155.146 48.428 104.025 59.9009 106.745C71.3738 109.464 59.9009 92.1848 59.9009 92.1848Z" fill="#FAAB2C"/>
<path d="M118 82.9873C118 82.9873 106.581 51.5142 54.1161 57.4098C1.65106 63.3182 -12.2101 25.9367 10.5508 18.0716C33.3117 10.2065 79.9203 -38.0006 118 83V82.9873Z" fill="#FAAB2C"/>
<path d="M447.057 16.0429C447.057 16.0429 419.701 39.1552 451.047 42.7814C482.394 46.4076 514.499 51.1895 501.809 22.7176C489.118 -5.75432 460.705 -6.87008 447.057 16.0429Z" fill="#FAAB2C"/>
</svg>
